<svg width="24" height="24" viewBox="0 0 24 24" fill="none" xmlns="http://www.w3.org/2000/svg">
<path d="M11.0182 18.9482L10.9091 19.0572L10.7891 18.9482C5.60727 14.2507 2.18182 11.1444 2.18182 7.99455C2.18182 5.81471 3.81818 4.17984 6 4.17984C7.68 4.17984 9.31636 5.26975 9.89455 6.75204H11.9236C12.5018 5.26975 14.1382 4.17984 15.8182 4.17984C18 4.17984 19.6364 5.81471 19.6364 7.99455C19.6364 11.1444 16.2109 14.2507 11.0182 18.9482ZM15.8182 2C13.92 2 12.0982 2.88283 10.9091 4.26703C9.72 2.88283 7.89818 2 6 2C2.64 2 0 4.6267 0 7.99455C0 12.1035 3.70909 15.4714 9.32727 20.5613L10.9091 22L12.4909 20.5613C18.1091 15.4714 21.8182 12.1035 21.8182 7.99455C21.8182 4.6267 19.1782 2 15.8182 2Z" fill="black"/>
</svg>
