<svg width="24" height="24" viewBox="0 0 24 24" fill="none" xmlns="http://www.w3.org/2000/svg">
<path d="M24 2.92V21.5752C23.8378 21.8946 23.6086 22.0937 23.2204 22.0937C17.1439 22.0895 11.0679 22.0883 4.99223 22.09C4.50757 22.09 4.22265 21.8019 4.22077 21.316C4.22077 20.7149 4.22077 20.1137 4.22077 19.512V19.2784H3.93085C2.87636 19.2784 1.82187 19.2784 0.767376 19.2784C0.412331 19.2784 0.159355 19.1125 0.0491472 18.8207C-0.0610609 18.5289 0.0140795 18.2502 0.274571 18.0204C0.886825 17.4721 1.41438 16.8361 1.84003 16.1331C3.43992 13.5501 4.14563 10.7091 4.21451 7.6984C4.24895 6.19995 4.22202 4.69961 4.2239 3.1999C4.2239 2.68456 4.50381 2.40591 5.02041 2.40528C6.09076 2.40528 7.1607 2.40528 8.23022 2.40528H8.48883C8.48883 2.17735 8.48883 1.98262 8.48883 1.7885C8.48883 1.31636 8.78001 0.995749 9.1983 1.00013C9.61659 1.00452 9.89148 1.32073 9.89461 1.77847C9.89461 1.98511 9.89461 2.19238 9.89461 2.39213H13.41C13.41 2.17735 13.41 1.97634 13.41 1.77471C13.4131 1.31885 13.6999 1.00201 14.1094 1.00013C14.519 0.998254 14.8114 1.31322 14.8152 1.76846C14.8152 1.97635 14.8152 2.18361 14.8152 2.38712H18.3775C18.3775 2.15856 18.3775 1.9488 18.3775 1.73778C18.3838 1.31698 18.6743 1.00765 19.0663 1.00013C19.4583 0.992618 19.7745 1.30571 19.7814 1.73527C19.7852 1.95193 19.7814 2.16859 19.7814 2.40528H20.0576C21.0594 2.40528 22.057 2.41969 23.0563 2.39903C23.4953 2.38838 23.814 2.51298 24 2.92ZM5.61904 8.03842C5.45373 11.6189 4.52698 14.9427 2.31593 17.8695H2.54261C7.90106 17.8695 13.2593 17.8676 18.6173 17.8639C18.7369 17.8582 18.8503 17.8095 18.9367 17.7267C19.7069 16.9396 20.3143 16.036 20.819 15.0579C21.7539 13.2464 22.2742 11.3134 22.4928 9.29391C22.5379 8.87938 22.5554 8.46171 22.5861 8.03591L5.61904 8.03842ZM5.6372 6.60697H22.5754V3.82359H19.7814C19.7814 4.04526 19.7814 4.25503 19.7814 4.46418C19.7758 4.9025 19.4833 5.2156 19.082 5.2156C18.6806 5.2156 18.3819 4.9025 18.3763 4.47043C18.3763 4.25502 18.3763 4.03962 18.3763 3.82859H14.8133C14.8133 4.05715 14.8133 4.26693 14.8133 4.47795C14.8058 4.90876 14.5002 5.22248 14.1001 5.2156C13.6999 5.20871 13.415 4.9025 13.4113 4.47983C13.4075 4.26317 13.4113 4.04713 13.4113 3.82546H9.89148C9.89148 4.04212 9.89148 4.24376 9.89148 4.44602C9.88772 4.89937 9.59655 5.21685 9.18703 5.2156C8.7775 5.21434 8.48883 4.89749 8.4857 4.44225C8.4857 4.23499 8.4857 4.02773 8.4857 3.82234H5.6372V6.60697ZM22.5842 14.6334C22.5216 14.763 22.4859 14.8356 22.4514 14.9095C21.7539 16.4055 20.8998 17.795 19.7081 18.9565C19.6016 19.0643 19.4739 19.1488 19.333 19.2045C19.1921 19.2602 19.0411 19.286 18.8897 19.2803C14.5628 19.2736 10.2359 19.2721 5.90896 19.2759H5.6372V20.6691H22.5842V14.6334Z" fill="black"/>
</svg>
