<svg width="24" height="24" viewBox="0 0 24 24" fill="none" xmlns="http://www.w3.org/2000/svg">
<path d="M7.98237 12.5131C4.45197 9.94944 4.18051 5.0371 7.03461 2.09133C7.67226 1.43017 8.4356 0.90437 9.27937 0.545126C10.1231 0.185881 11.0301 0.000508402 11.9466 1.04429e-06C12.863 -0.000506314 13.7702 0.183863 14.6143 0.542173C15.4585 0.900483 16.2224 1.42543 16.8608 2.08589C19.6499 4.95686 19.4949 9.78216 16.0227 12.4362C16.1243 12.4797 16.2136 12.5124 16.2982 12.5545C16.873 12.8381 17.4606 13.0985 18.0157 13.4168C18.4645 13.6731 18.602 14.1573 18.4381 14.6319C18.2696 15.1195 17.8336 15.4479 17.3665 15.3963C17.1505 15.3645 16.9432 15.2888 16.7572 15.1739C15.271 14.2781 13.56 13.8297 11.8275 13.8819C7.68653 13.9771 4.00856 17.1459 3.3255 21.2259C3.24329 21.7873 3.19153 22.3528 3.17047 22.9198C3.12579 23.71 2.43393 24.186 1.68859 23.9214C1.23705 23.761 0.994019 23.3917 1.00011 22.8498C1.02516 20.5017 1.69401 18.3617 3.0493 16.4407C4.2472 14.7298 5.90247 13.3941 7.82395 12.5878C7.86863 12.5736 7.91196 12.5498 7.98237 12.5131ZM7.25192 6.86903C7.22552 9.4646 9.30449 11.5767 11.9101 11.6012C12.5259 11.6102 13.1373 11.4968 13.7093 11.2675C14.2812 11.0382 14.8024 10.6976 15.2428 10.2653C15.6832 9.83296 16.0342 9.31741 16.2755 8.74831C16.5168 8.17922 16.6437 7.56782 16.6489 6.94927C16.678 4.34078 14.6051 2.19877 12.0279 2.17225C9.38437 2.14573 7.27832 4.2143 7.25462 6.86699L7.25192 6.86903Z" fill="black"/>
<path d="M18.5845 20.6486H16.4493C15.75 20.6486 15.2985 20.2304 15.293 19.5803C15.2863 18.9425 15.7446 18.4849 16.427 18.4719C17.1276 18.4583 17.829 18.4631 18.5296 18.4597C18.5371 18.4597 18.5438 18.4536 18.5845 18.4339V18.1802C18.5845 17.5607 18.5804 16.9419 18.5845 16.3224C18.5906 15.6853 19.0522 15.2079 19.6561 15.2032C20.26 15.1984 20.7393 15.6676 20.7487 16.3027C20.7609 16.9215 20.7487 17.541 20.7487 18.1605V18.4685H21.0385C21.6545 18.4685 22.2712 18.4597 22.888 18.4719C23.6753 18.4876 24.1464 19.1173 23.9494 19.8721C23.8262 20.3481 23.4417 20.6411 22.9171 20.6466C22.2083 20.6534 21.4995 20.6466 20.7508 20.6466V20.924C20.7508 21.5428 20.7596 22.1623 20.7508 22.7811C20.7372 23.5189 20.1923 23.9704 19.4693 23.8603C18.9378 23.7787 18.5926 23.3673 18.5892 22.7879C18.5824 22.1759 18.5892 21.5639 18.5892 20.956L18.5845 20.6486Z" fill="black"/>
</svg>
