<svg width="23" height="22" viewBox="0 0 23 22" fill="none" xmlns="http://www.w3.org/2000/svg">
<g clip-path="url(#clip0_371_7465)">
<path d="M16.1558 5.62411C16.1558 8.72706 13.6263 11.2515 10.5137 11.2495C9.40203 11.2461 8.31626 10.9133 7.39356 10.2932C6.47087 9.67313 5.75262 8.7935 5.32952 7.76545C4.90643 6.7374 4.79747 5.60702 5.0164 4.51708C5.23533 3.42714 5.77234 2.42652 6.5596 1.64159C7.34686 0.856652 8.34906 0.322607 9.43964 0.1069C10.5302 -0.108807 11.6603 0.00349639 12.6871 0.429628C13.7139 0.85576 14.5914 1.57661 15.2087 2.50113C15.8261 3.42566 16.1557 4.5124 16.1558 5.62411Z" fill="black"/>
<path d="M11.9463 20.9756C11.8617 20.9801 11.8181 20.9846 11.7695 20.9846C8.42922 20.9846 5.08943 20.9846 1.75005 20.9846C0.897271 20.9846 0.190569 20.4118 0.0412842 19.5866C-0.0144574 19.2758 -0.00100251 18.9491 0.00924882 18.6306C0.0259072 18.0892 -0.00292346 17.5344 0.10856 17.0109C0.350748 15.8718 1.10807 15.067 2.023 14.4052C3.28135 13.4954 4.71397 12.979 6.21003 12.6221C8.01554 12.1922 9.84733 12.0832 11.6958 12.1704C11.7964 12.1749 11.897 12.1915 12.0129 12.2037C9.50326 14.8614 9.88385 18.7754 11.9463 20.9756Z" fill="black"/>
<path d="M22.0425 16.6288C22.0435 17.3344 21.9052 18.0331 21.6356 18.6851C21.3661 19.3371 20.9705 19.9295 20.4717 20.4284C19.9728 20.9272 19.3804 21.3228 18.7284 21.5923C18.0764 21.8619 17.3776 22.0002 16.6721 21.9993C13.696 22.0063 11.2697 19.5876 11.2774 16.6212C11.2851 13.6547 13.7044 11.2559 16.6676 11.2559C18.0926 11.2567 19.4589 11.823 20.4667 12.8304C21.4744 13.8378 22.0412 15.2039 22.0425 16.6288ZM16.0641 16.9287C15.7143 16.6968 15.4029 16.4872 15.0883 16.2822C14.6821 16.0182 14.2099 16.0996 13.969 16.4699C13.7281 16.8403 13.837 17.2862 14.2329 17.554C14.6898 17.8628 15.1498 18.1678 15.6098 18.4728C16.0795 18.7842 16.3985 18.7502 16.8041 18.3447C17.5973 17.554 18.3901 16.7638 19.1824 15.974C19.2348 15.9249 19.283 15.8716 19.3266 15.8145C19.5092 15.5582 19.5419 15.2827 19.3906 15.0021C19.2394 14.7214 19.0062 14.5882 18.6859 14.5927C18.443 14.5965 18.2636 14.715 18.1003 14.8797C17.4294 15.5601 16.7516 16.2393 16.0654 16.9287H16.0641Z" fill="black"/>
</g>
<defs>
<clipPath id="clip0_371_7465">
<rect width="22.0442" height="22" fill="white"/>
</clipPath>
</defs>
</svg>
