<svg width="19" height="16" viewBox="0 0 19 16" fill="none" xmlns="http://www.w3.org/2000/svg">
<path d="M4.69108 15.6538V8.00374L2.53421 5.83325L0.600098 4.62878V14.3038C0.600098 15.0507 1.1503 15.6538 1.82742 15.6538H4.69108Z" fill="#4285F4"/>
<path d="M14.5098 15.6538H17.3734C18.0526 15.6538 18.6008 15.0485 18.6008 14.3038V4.62891L16.4101 6.00848L14.5098 8.00379V15.6538Z" fill="#34A853"/>
<path d="M4.69046 8.00376L4.39697 5.01466L4.69046 2.15381L9.59962 6.20382L14.5088 2.15381L14.8371 4.86021L14.5088 8.00376L9.59962 12.0538L4.69046 8.00376Z" fill="#EA4335"/>
<path d="M14.5098 2.15378V8.00373L18.6008 4.62877V2.82876C18.6008 1.1593 16.8682 0.207591 15.6553 1.2088L14.5098 2.15378Z" fill="#FBBC04"/>
<path d="M0.600098 4.62881L2.48162 6.18109L4.69108 8.00377V2.15382L3.54553 1.20884C2.33051 0.207549 0.600098 1.15934 0.600098 2.82872V4.62873V4.62881Z" fill="#C5221F"/>
</svg>
