<svg width="22" height="21" viewBox="0 0 22 21" fill="none" xmlns="http://www.w3.org/2000/svg">
<path d="M1.66993 1.30746C1.6443 1.19827 1.59722 1.09527 1.53142 1.00444C1.46563 0.913605 1.38243 0.83676 1.28667 0.778371C1.19091 0.719981 1.08449 0.681212 0.973616 0.664318C0.862738 0.647423 0.749607 0.65274 0.640802 0.67996C0.531997 0.70718 0.42969 0.75576 0.339828 0.822874C0.249966 0.889988 0.174343 0.974297 0.117357 1.0709C0.0603712 1.1675 0.0231589 1.27447 0.00788401 1.38558C-0.00739088 1.4967 -0.000423513 1.60974 0.0283811 1.71813L0.459358 3.44204C0.848347 4.99773 1.63455 6.42577 2.74104 7.58645C3.84752 8.74712 5.23638 9.60065 6.7717 10.0635V15.11C6.7717 16.1231 6.7717 16.9693 6.86196 17.6395C6.95673 18.348 7.16658 18.9877 7.68104 19.501C8.19438 20.0155 8.83407 20.2253 9.54259 20.3201C10.2139 20.4103 11.0589 20.4103 12.072 20.4103H12.1894C13.2036 20.4103 14.0487 20.4103 14.72 20.3201C15.4273 20.2253 16.067 20.0155 16.5815 19.501C17.0948 18.9877 17.3036 18.348 17.3995 17.6395C17.4897 16.9693 17.4897 16.1231 17.4897 15.11V10.3794C18.0439 10.5447 18.5376 10.8687 18.9097 11.3114C19.2818 11.7541 19.5161 12.2961 19.5837 12.8705L20.317 19.0982C20.3496 19.3156 20.4654 19.5118 20.64 19.6452C20.8146 19.7787 21.0343 19.8389 21.2526 19.8133C21.4709 19.7876 21.6706 19.6781 21.8095 19.5078C21.9484 19.3375 22.0156 19.1198 21.9969 18.9008L21.2636 12.6731C21.1304 11.5412 20.5864 10.4976 19.7348 9.74021C18.8832 8.98281 17.7832 8.56433 16.6436 8.56412H7.71376C6.3603 8.24632 5.12052 7.56188 4.13042 6.58591C3.14031 5.60993 2.43813 4.38012 2.10091 3.03137L1.66993 1.30746Z" fill="black"/>
</svg>
