<svg width="22" height="24" viewBox="0 0 22 24" fill="none" xmlns="http://www.w3.org/2000/svg">
<path d="M12.13 9.02569C13.3269 9.02569 14.4748 8.55023 15.3211 7.70391C16.1674 6.85759 16.6429 5.70973 16.6429 4.51285C16.6429 3.31597 16.1674 2.16811 15.3211 1.32178C14.4748 0.475459 13.3269 0 12.13 0C10.9332 0 9.78529 0.475459 8.93897 1.32178C8.09265 2.16811 7.61719 3.31597 7.61719 4.51285C7.61719 5.70973 8.09265 6.85759 8.93897 7.70391C9.78529 8.55023 10.9332 9.02569 12.13 9.02569Z" fill="black"/>
<path d="M1.66993 4.30753C1.6443 4.19833 1.59722 4.09533 1.53142 4.0045C1.46563 3.91367 1.38243 3.83682 1.28667 3.77843C1.19091 3.72004 1.08449 3.68127 0.973616 3.66438C0.862738 3.64748 0.749607 3.6528 0.640802 3.68002C0.531997 3.70724 0.42969 3.75582 0.339828 3.82294C0.249966 3.89005 0.174343 3.97436 0.117357 4.07096C0.0603712 4.16756 0.0231589 4.27453 0.00788401 4.38564C-0.00739088 4.49676 -0.000423513 4.6098 0.0283811 4.71819L0.459358 6.4421C0.848347 7.99779 1.63455 9.42584 2.74104 10.5865C3.84752 11.7472 5.23638 12.6007 6.7717 13.0636V18.1101C6.7717 19.1232 6.7717 19.9694 6.86196 20.6395C6.95673 21.348 7.16658 21.9877 7.68104 22.5011C8.19438 23.0155 8.83407 23.2254 9.54259 23.3202C10.2139 23.4104 11.0589 23.4104 12.072 23.4104H12.1894C13.2036 23.4104 14.0487 23.4104 14.72 23.3202C15.4273 23.2254 16.067 23.0155 16.5815 22.5011C17.0948 21.9877 17.3036 21.348 17.3995 20.6395C17.4897 19.9694 17.4897 19.1232 17.4897 18.1101V13.3795C18.0439 13.5448 18.5376 13.8688 18.9097 14.3115C19.2818 14.7542 19.5161 15.2962 19.5837 15.8706L20.317 22.0983C20.3496 22.3157 20.4654 22.5118 20.64 22.6453C20.8146 22.7787 21.0343 22.839 21.2526 22.8134C21.4709 22.7877 21.6706 22.6781 21.8095 22.5078C21.9484 22.3375 22.0156 22.1198 21.9969 21.9009L21.2636 15.6731C21.1304 14.5413 20.5864 13.4977 19.7348 12.7403C18.8832 11.9829 17.7832 11.5644 16.6436 11.5642H7.71376C6.3603 11.2464 5.12052 10.5619 4.13042 9.58597C3.14031 8.60999 2.43813 7.38018 2.10091 6.03143L1.66993 4.30753Z" fill="black"/>
</svg>
