<svg width="25" height="24" viewBox="0 0 25 24" fill="none" xmlns="http://www.w3.org/2000/svg">
<path d="M12.5908 24C10.9508 24 9.40082 23.6848 7.94082 23.0544C6.48082 22.424 5.20562 21.564 4.11522 20.4744C3.02562 19.3848 2.16562 18.11 1.53522 16.65C0.904822 15.19 0.590022 13.64 0.590822 12C0.590822 10.34 0.906022 8.7848 1.53642 7.3344C2.16682 5.884 3.02682 4.6144 4.11642 3.5256C5.20602 2.4352 6.48042 1.5752 7.93962 0.9456C9.39882 0.316 10.9492 0.0008 12.5908 0C14.2508 0 15.806 0.3152 17.2564 0.9456C18.7068 1.576 19.9764 2.436 21.0652 3.5256C22.1556 4.6152 23.0156 5.8852 23.6452 7.3356C24.2748 8.786 24.59 10.3408 24.5908 12C24.5908 13.64 24.2756 15.19 23.6452 16.65C23.0148 18.11 22.1548 19.3852 21.0652 20.4756C19.9756 21.5652 18.7056 22.4252 17.2552 23.0556C15.8048 23.686 14.25 24.0008 12.5908 24ZM12.5908 21.54C13.1108 20.82 13.5608 20.07 13.9408 19.29C14.3208 18.51 14.6308 17.68 14.8708 16.8H10.3108C10.5508 17.68 10.8608 18.51 11.2408 19.29C11.6208 20.07 12.0708 20.82 12.5908 21.54ZM9.47082 21.06C9.11082 20.4 8.79562 19.7148 8.52522 19.0044C8.25482 18.294 8.03002 17.5592 7.85082 16.8H4.31082C4.89082 17.8 5.61602 18.67 6.48642 19.41C7.35682 20.15 8.35162 20.7 9.47082 21.06ZM15.7108 21.06C16.8308 20.7 17.826 20.15 18.6964 19.41C19.5668 18.67 20.2916 17.8 20.8708 16.8H17.3308C17.1508 17.56 16.926 18.2952 16.6564 19.0056C16.3868 19.716 16.0716 20.4008 15.7108 21.06ZM3.29082 14.4H7.37082C7.31082 14 7.26562 13.6048 7.23522 13.2144C7.20482 12.824 7.19002 12.4192 7.19082 12C7.19082 11.58 7.20602 11.1752 7.23642 10.7856C7.26682 10.396 7.31162 10.0008 7.37082 9.6H3.29082C3.19082 10 3.11562 10.3952 3.06522 10.7856C3.01482 11.176 2.99002 11.5808 2.99082 12C2.99082 12.42 3.01602 12.8248 3.06642 13.2144C3.11682 13.604 3.19162 13.9992 3.29082 14.4ZM9.77082 14.4H15.4108C15.4708 14 15.516 13.6048 15.5464 13.2144C15.5768 12.824 15.5916 12.4192 15.5908 12C15.5908 11.58 15.5756 11.1752 15.5452 10.7856C15.5148 10.396 15.47 10.0008 15.4108 9.6H9.77082C9.71082 10 9.66562 10.3952 9.63522 10.7856C9.60482 11.176 9.59002 11.5808 9.59082 12C9.59082 12.42 9.60602 12.8248 9.63642 13.2144C9.66682 13.604 9.71162 13.9992 9.77082 14.4ZM17.8108 14.4H21.8908C21.9908 14 22.066 13.6048 22.1164 13.2144C22.1668 12.824 22.1916 12.4192 22.1908 12C22.1908 11.58 22.1656 11.1752 22.1152 10.7856C22.0648 10.396 21.99 10.0008 21.8908 9.6H17.8108C17.8708 10 17.916 10.3952 17.9464 10.7856C17.9768 11.176 17.9916 11.5808 17.9908 12C17.9908 12.42 17.9756 12.8248 17.9452 13.2144C17.9148 13.604 17.87 13.9992 17.8108 14.4ZM17.3308 7.2H20.8708C20.2908 6.2 19.566 5.33 18.6964 4.59C17.8268 3.85 16.8316 3.3 15.7108 2.94C16.0708 3.6 16.386 4.2852 16.6564 4.9956C16.9268 5.706 17.1516 6.4408 17.3308 7.2ZM10.3108 7.2H14.8708C14.6308 6.32 14.3208 5.49 13.9408 4.71C13.5608 3.93 13.1108 3.18 12.5908 2.46C12.0708 3.18 11.6208 3.93 11.2408 4.71C10.8608 5.49 10.5508 6.32 10.3108 7.2ZM4.31082 7.2H7.85082C8.03082 6.44 8.25602 5.7048 8.52642 4.9944C8.79682 4.284 9.11162 3.5992 9.47082 2.94C8.35082 3.3 7.35562 3.85 6.48522 4.59C5.61482 5.33 4.89002 6.2 4.31082 7.2Z" fill="black"/>
</svg>
