<svg width="24" height="24" viewBox="0 0 24 24" fill="none" xmlns="http://www.w3.org/2000/svg">
<path d="M8.19382 10.3991C8.19382 9.46433 8.56517 8.56783 9.22617 7.90683C9.88716 7.24583 10.7837 6.87449 11.7185 6.87449C12.6533 6.87449 13.5498 7.24583 14.2108 7.90683C14.8718 8.56783 15.2431 9.46433 15.2431 10.3991C15.2431 11.3339 14.8718 12.2304 14.2108 12.8914C13.5498 13.5524 12.6533 13.9238 11.7185 13.9238C10.7837 13.9238 9.88716 13.5524 9.22617 12.8914C8.56517 12.2304 8.19382 11.3339 8.19382 10.3991Z" fill="black" stroke="black" stroke-width="0.290966"/>
<path d="M4.72976 16.0592L4.72974 16.0592C3.14361 14.1195 2.37224 11.6398 2.5781 9.14263C2.76243 6.90871 3.77999 4.82577 5.42878 3.30727C7.07758 1.78878 9.23706 0.945748 11.4786 0.945532H11.9664C14.2079 0.945748 16.3674 1.78878 18.0162 3.30727C19.665 4.82577 20.6825 6.90871 20.8668 9.14263L21.0118 9.13066L20.8668 9.14263C21.073 11.6397 20.3021 14.1193 18.7163 16.0592L13.3038 22.679L13.3037 22.679C13.1122 22.9134 12.871 23.1023 12.5975 23.232C12.324 23.3617 12.0252 23.429 11.7225 23.429C11.4198 23.429 11.1209 23.3617 10.8474 23.232C10.574 23.1023 10.3327 22.9134 10.1412 22.679L10.1412 22.679L4.72976 16.0592Z" stroke="black" stroke-width="0.290966"/>
</svg>
