<svg width="166" height="54" viewBox="0 0 166 54" fill="none" xmlns="http://www.w3.org/2000/svg">
<rect x="0.392578" width="165.582" height="53.2109" rx="10" fill="black"/>
<path d="M37.2831 41.8484C35.4444 43.5796 33.4369 43.3063 31.5044 42.4862C29.4594 41.648 27.5832 41.6115 25.4256 42.4862C22.724 43.6161 21.2981 43.2881 19.6846 41.8484C10.5289 32.6822 11.8797 18.7233 22.2737 18.2131C24.8065 18.3406 26.5701 19.5616 28.0523 19.6709C30.2662 19.2335 32.3862 17.9762 34.7502 18.1402C37.5832 18.3588 39.7221 19.4522 41.1292 21.4203C35.2756 24.828 36.6639 32.3177 42.0298 34.4134C40.9603 37.1469 39.572 39.8621 37.2643 41.8667L37.2831 41.8484ZM27.8647 18.1037C27.5832 14.04 30.9791 10.6869 34.8816 10.3589C35.4256 15.0605 30.4913 18.5593 27.8647 18.1037Z" fill="#F8F8F8"/>
<path d="M65.0005 22.1167H66.0693L63.7196 15.6467H62.6282L60.2786 22.1167H61.3294L61.9247 20.3681H64.4051L65.0005 22.1167ZM63.1514 16.7228H63.1784L64.1481 19.561H62.1817L63.1514 16.7228Z" fill="#F8F8F8"/>
<path d="M69.1 22.1167L71.4226 15.6467H70.3447L68.5678 20.9868H68.5407L66.7683 15.6467H65.6724L67.995 22.1167H69.1Z" fill="#F8F8F8"/>
<path d="M75.7521 22.1167H76.821L74.4713 15.6467H73.3799L71.0302 22.1167H72.081L72.6764 20.3681H75.1568L75.7521 22.1167ZM73.9031 16.7228H73.9301L74.8997 19.561H72.9334L73.9031 16.7228Z" fill="#F8F8F8"/>
<path d="M78.5483 22.1167V15.6467H77.5381V22.1167H78.5483Z" fill="#F8F8F8"/>
<path d="M83.7888 21.2469H80.7581V15.6467H79.7479V22.1167H83.7888V21.2469Z" fill="#F8F8F8"/>
<path d="M88.8941 22.1167H89.9629L87.6132 15.6467H86.5218L84.1722 22.1167H85.223L85.8183 20.3681H88.2987L88.8941 22.1167ZM87.045 16.7228H87.072L88.0417 19.561H86.0753L87.045 16.7228Z" fill="#F8F8F8"/>
<path d="M93.2912 22.1167C94.6758 22.1167 95.5101 21.4262 95.5101 20.2874C95.5101 19.4265 94.9148 18.8032 94.0309 18.7046V18.6687C94.6803 18.5611 95.1899 17.9468 95.1899 17.2608C95.1899 16.2834 94.4322 15.6467 93.2777 15.6467H90.68V22.1167H93.2912ZM91.6902 16.4672H93.0342C93.7648 16.4672 94.1797 16.799 94.1797 17.3998C94.1797 18.041 93.6971 18.3997 92.8222 18.3997H91.6902V16.4672ZM91.6902 21.2962V19.1664H93.0252C93.9813 19.1664 94.4773 19.5251 94.4773 20.2246C94.4773 20.9241 93.9948 21.2962 93.0838 21.2962H91.6902Z" fill="#F8F8F8"/>
<path d="M100.421 21.2469H97.3908V15.6467H96.3805V22.1167H100.421V21.2469Z" fill="#F8F8F8"/>
<path d="M105.418 21.2469H102.298V19.2382H105.252V18.4042H102.298V16.512H105.418V15.6467H101.287V22.1167H105.418V21.2469Z" fill="#F8F8F8"/>
<path d="M111.146 15.5391C109.27 15.5391 108.097 16.8259 108.097 18.8839C108.097 20.942 109.27 22.2244 111.146 22.2244C113.018 22.2244 114.195 20.942 114.195 18.8839C114.195 16.8259 113.018 15.5391 111.146 15.5391ZM111.146 16.4224C112.382 16.4224 113.157 17.3729 113.157 18.8839C113.157 20.3905 112.382 21.341 111.146 21.341C109.91 21.341 109.13 20.3905 109.13 18.8839C109.13 17.3729 109.91 16.4224 111.146 16.4224Z" fill="#F8F8F8"/>
<path d="M116.143 22.1167V17.3505H116.184L119.557 22.1167H120.468V15.6467H119.485V20.4174H119.449L116.075 15.6467H115.16V22.1167H116.143Z" fill="#F8F8F8"/>
<path d="M126.173 22.1167V16.512H128.162V15.6467H123.17V16.512H125.163V22.1167H126.173Z" fill="#F8F8F8"/>
<path d="M134.35 22.1167V15.6467H133.339V18.3818H129.998V15.6467H128.987V22.1167H129.998V19.2516H133.339V22.1167H134.35Z" fill="#F8F8F8"/>
<path d="M139.676 21.2469H136.555V19.2382H139.509V18.4042H136.555V16.512H139.676V15.6467H135.545V22.1167H139.676V21.2469Z" fill="#F8F8F8"/>
<path d="M63.345 41.2168H60.5859L59.489 38.38H54.4677L53.4309 41.2168H50.7402L55.6331 28.7278H58.3151L63.345 41.2168ZM58.675 36.2757L56.9441 31.6413L55.2475 36.2757H58.675Z" fill="#F8F8F8"/>
<path d="M64.6989 41.2168V28.7278H68.7691C70.3115 28.7278 71.3169 28.7903 71.7854 28.9152C72.5052 29.1026 73.1078 29.5115 73.5934 30.142C74.079 30.7667 74.3218 31.576 74.3218 32.5699C74.3218 33.3366 74.1818 33.9813 73.9019 34.5038C73.622 35.0263 73.2649 35.438 72.8308 35.739C72.4023 36.0344 71.9653 36.2303 71.5197 36.3269C70.9142 36.4461 70.0373 36.5058 68.8891 36.5058H67.2353V41.2168H64.6989ZM67.2353 30.8405V34.3845H68.6235C69.6232 34.3845 70.2915 34.3192 70.6286 34.1885C70.9656 34.0579 71.2284 33.8535 71.4169 33.5752C71.6111 33.2969 71.7082 32.9732 71.7082 32.604C71.7082 32.1496 71.574 31.7748 71.3055 31.4795C71.037 31.1841 70.6971 30.9995 70.2858 30.9257C69.983 30.8689 69.3747 30.8405 68.4606 30.8405H67.2353Z" fill="#F8F8F8"/>
<path d="M76.404 41.2168V28.7278H80.4742C82.0166 28.7278 83.022 28.7903 83.4904 28.9152C84.2102 29.1026 84.8129 29.5115 85.2985 30.142C85.784 30.7667 86.0268 31.576 86.0268 32.5699C86.0268 33.3366 85.8869 33.9813 85.6069 34.5038C85.327 35.0263 84.97 35.438 84.5358 35.739C84.1074 36.0344 83.6704 36.2303 83.2248 36.3269C82.6193 36.4461 81.7424 36.5058 80.5942 36.5058H78.9404V41.2168H76.404ZM78.9404 30.8405V34.3845H80.3285C81.3282 34.3845 81.9966 34.3192 82.3336 34.1885C82.6707 34.0579 82.9335 33.8535 83.122 33.5752C83.3162 33.2969 83.4133 32.9732 83.4133 32.604C83.4133 32.1496 83.2791 31.7748 83.0106 31.4795C82.7421 31.1841 82.4022 30.9995 81.9909 30.9257C81.6881 30.8689 81.0797 30.8405 80.1657 30.8405H78.9404Z" fill="#F8F8F8"/>
<path d="M92.025 37.1532L94.4929 36.9147C94.6414 37.7382 94.9413 38.3431 95.3926 38.7293C95.8496 39.1155 96.4637 39.3086 97.2349 39.3086C98.0518 39.3086 98.6659 39.1382 99.0772 38.7974C99.4942 38.451 99.7027 38.0477 99.7027 37.5877C99.7027 37.2924 99.6142 37.0425 99.4371 36.838C99.2657 36.6279 98.963 36.4461 98.5288 36.2928C98.2317 36.1905 97.5548 36.0088 96.498 35.7476C95.1384 35.4125 94.1844 35.0007 93.636 34.5123C92.8648 33.8251 92.4792 32.9874 92.4792 31.9991C92.4792 31.363 92.6591 30.7695 93.019 30.2186C93.3846 29.662 93.9073 29.2389 94.5871 28.9493C95.2726 28.6596 96.0981 28.5148 97.0635 28.5148C98.6402 28.5148 99.8256 28.8584 100.62 29.5456C101.419 30.2328 101.839 31.1501 101.879 32.2973L99.3428 32.408C99.2343 31.7663 99.0001 31.3062 98.6402 31.0279C98.286 30.744 97.7519 30.602 97.0378 30.602C96.3009 30.602 95.7239 30.7525 95.3069 31.0535C95.0384 31.2466 94.9042 31.505 94.9042 31.8287C94.9042 32.1241 95.0298 32.3768 95.2812 32.587C95.6011 32.8539 96.378 33.1322 97.6119 33.4218C98.8458 33.7115 99.757 34.0125 100.345 34.3249C100.94 34.6315 101.402 35.0547 101.734 35.5942C102.071 36.1281 102.239 36.7897 102.239 37.5792C102.239 38.2948 102.039 38.965 101.639 39.5897C101.239 40.2144 100.674 40.6801 99.9427 40.9868C99.2115 41.2878 98.3003 41.4383 97.2092 41.4383C95.6211 41.4383 94.4015 41.0749 93.5503 40.3479C92.6991 39.6152 92.1907 38.5504 92.025 37.1532Z" fill="#F8F8F8"/>
<path d="M104.381 41.2168V28.7278H109.72C111.062 28.7278 112.036 28.8414 112.642 29.0685C113.253 29.29 113.741 29.6876 114.107 30.2612C114.473 30.8348 114.655 31.4908 114.655 32.2291C114.655 33.1663 114.378 33.9415 113.824 34.5549C113.27 35.1626 112.442 35.5459 111.339 35.705C111.888 36.023 112.339 36.3723 112.693 36.7528C113.053 37.1333 113.536 37.8092 114.141 38.7804L115.675 41.2168H112.642L110.808 38.4992C110.157 37.5281 109.711 36.9175 109.471 36.6676C109.231 36.412 108.977 36.2388 108.709 36.148C108.44 36.0514 108.015 36.0031 107.432 36.0031H106.918V41.2168H104.381ZM106.918 34.0096H108.794C110.011 34.0096 110.771 33.9585 111.074 33.8563C111.376 33.7541 111.613 33.578 111.785 33.3281C111.956 33.0782 112.042 32.7659 112.042 32.391C112.042 31.9707 111.928 31.6328 111.699 31.3772C111.476 31.116 111.159 30.9513 110.748 30.8831C110.542 30.8547 109.925 30.8405 108.897 30.8405H106.918V34.0096Z" fill="#F8F8F8"/>
<path d="M116.541 35.049C116.541 33.7768 116.732 32.7091 117.115 31.8458C117.4 31.2097 117.789 30.6389 118.28 30.1334C118.777 29.628 119.32 29.2531 119.908 29.0089C120.691 28.6795 121.593 28.5148 122.616 28.5148C124.467 28.5148 125.946 29.0856 127.055 30.2271C128.169 31.3687 128.725 32.9561 128.725 34.9893C128.725 37.0055 128.174 38.5844 127.072 39.726C125.969 40.8619 124.495 41.4298 122.65 41.4298C120.782 41.4298 119.297 40.8647 118.194 39.7345C117.092 38.5986 116.541 37.0368 116.541 35.049ZM119.154 34.9638C119.154 36.378 119.483 37.4514 120.139 38.184C120.796 38.911 121.63 39.2745 122.642 39.2745C123.653 39.2745 124.481 38.9138 125.127 38.1925C125.778 37.4656 126.103 36.378 126.103 34.9297C126.103 33.4985 125.786 32.4308 125.152 31.7265C124.524 31.0223 123.687 30.6701 122.642 30.6701C121.596 30.6701 120.754 31.0279 120.114 31.7436C119.474 32.4535 119.154 33.5269 119.154 34.9638Z" fill="#F8F8F8"/>
<path d="M130.722 41.2168V28.7278H136.06C137.403 28.7278 138.377 28.8414 138.982 29.0685C139.594 29.29 140.082 29.6876 140.448 30.2612C140.813 30.8348 140.996 31.4908 140.996 32.2291C140.996 33.1663 140.719 33.9415 140.165 34.5549C139.611 35.1626 138.782 35.5459 137.68 35.705C138.228 36.023 138.68 36.3723 139.034 36.7528C139.394 37.1333 139.876 37.8092 140.482 38.7804L142.016 41.2168H138.982L137.149 38.4992C136.497 37.5281 136.052 36.9175 135.812 36.6676C135.572 36.412 135.318 36.2388 135.049 36.148C134.781 36.0514 134.355 36.0031 133.773 36.0031H133.258V41.2168H130.722ZM133.258 34.0096H135.135C136.352 34.0096 137.112 33.9585 137.414 33.8563C137.717 33.7541 137.954 33.578 138.126 33.3281C138.297 33.0782 138.383 32.7659 138.383 32.391C138.383 31.9707 138.268 31.6328 138.04 31.3772C137.817 31.116 137.5 30.9513 137.089 30.8831C136.883 30.8547 136.266 30.8405 135.238 30.8405H133.258V34.0096Z" fill="#F8F8F8"/>
<path d="M143.395 41.2168V28.7278H152.71V30.8405H145.932V33.6092H152.238V35.7135H145.932V39.1126H152.95V41.2168H143.395Z" fill="#F8F8F8"/>
</svg>
