<svg width="54" height="54" viewBox="0 0 54 54" fill="none" xmlns="http://www.w3.org/2000/svg">
<circle cx="26.9823" cy="27.3605" r="26.6395" fill="white"/>
<path d="M46.0125 27.3076C46.0125 16.828 37.4932 8.33252 26.9843 8.33252C16.4754 8.33252 7.95605 16.8279 7.95605 27.3076C7.95605 36.7786 14.9144 44.6288 24.0111 46.0522V32.7926H19.1797V27.3076H24.0111V23.1272C24.0111 18.3715 26.852 15.7447 31.1983 15.7447C33.2803 15.7447 35.4578 16.1153 35.4578 16.1153V20.7849H33.0585C30.6945 20.7849 29.9575 22.2477 29.9575 23.7483V27.3076H35.2348L34.3912 32.7926H29.9575V46.0522C39.0541 44.6288 46.0125 36.7787 46.0125 27.3076Z" fill="#1877F2"/>
<path d="M34.4904 32.8509L35.3456 27.3462H29.9956V23.7742C29.9956 22.268 30.7429 20.8002 33.1393 20.8002H35.5717V16.1139C35.5717 16.1139 33.3642 15.7419 31.2535 15.7419C26.8473 15.7419 23.9673 18.3782 23.9673 23.1508V27.3462H19.0693V32.8509H23.9673V46.1579C24.9644 46.3121 25.9722 46.3895 26.9814 46.3892C27.9907 46.3895 28.9985 46.3122 29.9956 46.1579V32.8509H34.4904Z" fill="white"/>
</svg>
