<svg width="165" height="54" viewBox="0 0 165 54" fill="none" xmlns="http://www.w3.org/2000/svg">
<path d="M164.185 45.9668C164.185 49.9331 160.941 53.1497 156.939 53.1497H7.48928C3.48751 53.15 0.242188 49.9334 0.242188 45.9668V7.18421C0.242187 3.21824 3.48751 0.00195312 7.48928 0.00195312H156.939C160.941 0.00195312 164.185 3.21824 164.185 7.18421L164.185 45.9668Z" fill="black"/>
<mask id="mask0_21_1022" style="mask-type:luminance" maskUnits="userSpaceOnUse" x="12" y="10" width="32" height="36">
<path d="M35.7752 23.3955L28.3829 19.1659C28.3829 19.1659 14.9157 11.4592 14.124 11.0062C13.3323 10.5532 12.5435 10.8277 12.5435 11.7743V45.0176C12.5435 45.7273 13.1072 46.0332 13.7951 45.6399C14.4826 45.246 28.3829 37.2922 28.3829 37.2922L35.7749 33.0628C35.7749 33.0628 42.0469 29.4743 42.8806 28.9974C43.7143 28.52 43.6342 27.8656 42.9306 27.4902C42.2274 27.1144 35.7752 23.3955 35.7752 23.3955Z" fill="white"/>
</mask>
<g mask="url(#mask0_21_1022)">
<path d="M12.5425 10.2324V46.2241L30.8554 28.2284L12.5425 10.2324Z" fill="url(#paint0_linear_21_1022)"/>
</g>
<mask id="mask1_21_1022" style="mask-type:luminance" maskUnits="userSpaceOnUse" x="12" y="10" width="32" height="36">
<path d="M35.7752 23.3955L28.3829 19.1659C28.3829 19.1659 14.9157 11.4592 14.124 11.0062C13.3323 10.5532 12.5435 10.8277 12.5435 11.7743V45.0176C12.5435 45.7273 13.1072 46.0332 13.7951 45.6399C14.4826 45.246 28.3829 37.2922 28.3829 37.2922L35.7749 33.0628C35.7749 33.0628 42.0469 29.4743 42.8806 28.9974C43.7143 28.52 43.6342 27.8656 42.9306 27.4902C42.2274 27.1144 35.7752 23.3955 35.7752 23.3955Z" fill="white"/>
</mask>
<g mask="url(#mask1_21_1022)">
<path d="M35.7739 23.3966L28.3816 19.1669L12.5425 10.1035V10.2344L30.8554 28.2304L35.7739 23.3966Z" fill="url(#paint1_linear_21_1022)"/>
</g>
<mask id="mask2_21_1022" style="mask-type:luminance" maskUnits="userSpaceOnUse" x="12" y="10" width="32" height="36">
<path d="M35.7752 23.3955L28.3829 19.1659C28.3829 19.1659 14.9157 11.4592 14.124 11.0062C13.3323 10.5532 12.5435 10.8277 12.5435 11.7743V45.0176C12.5435 45.7273 13.1072 46.0332 13.7951 45.6399C14.4826 45.246 28.3829 37.2922 28.3829 37.2922L35.7749 33.0628C35.7749 33.0628 42.0469 29.4743 42.8806 28.9974C43.7143 28.52 43.6342 27.8656 42.9306 27.4902C42.2274 27.1144 35.7752 23.3955 35.7752 23.3955Z" fill="white"/>
</mask>
<g mask="url(#mask2_21_1022)">
<path d="M12.5425 46.2242V46.355L28.3816 37.2913L35.7736 33.0617L30.8554 28.2285L12.5425 46.2242Z" fill="url(#paint2_linear_21_1022)"/>
</g>
<mask id="mask3_21_1022" style="mask-type:luminance" maskUnits="userSpaceOnUse" x="12" y="10" width="32" height="36">
<path d="M35.7752 23.3955L28.3829 19.1659C28.3829 19.1659 14.9157 11.4592 14.124 11.0062C13.3323 10.5532 12.5435 10.8277 12.5435 11.7743V45.0176C12.5435 45.7273 13.1072 46.0332 13.7951 45.6399C14.4826 45.246 28.3829 37.2922 28.3829 37.2922L35.7749 33.0628C35.7749 33.0628 42.0469 29.4743 42.8806 28.9974C43.7143 28.52 43.6342 27.8656 42.9306 27.4902C42.2274 27.1144 35.7752 23.3955 35.7752 23.3955Z" fill="white"/>
</mask>
<g mask="url(#mask3_21_1022)">
<path d="M35.7735 23.395L30.855 28.2288L35.7731 33.062L44.2212 28.2285L35.7735 23.395Z" fill="url(#paint3_linear_21_1022)"/>
</g>
<path d="M127.832 35.266C127.144 35.266 126.517 35.1402 125.948 34.889C125.38 34.6374 124.902 34.2505 124.517 33.7289H124.401C124.478 34.3401 124.517 34.9195 124.517 35.4668V39.7739H122.918V24.608H124.219L124.44 26.0406H124.517C124.928 25.4672 125.407 25.054 125.953 24.7992C126.499 24.5444 127.125 24.4171 127.832 24.4171C129.232 24.4171 130.313 24.8916 131.074 25.8402C131.836 26.7887 132.216 28.1197 132.216 29.8319C132.216 31.551 131.829 32.8861 131.056 33.8388C130.282 34.7905 129.207 35.266 127.832 35.266ZM127.601 25.7636C126.521 25.7636 125.741 26.06 125.259 26.6518C124.777 27.2439 124.53 28.1864 124.517 29.479V29.8319C124.517 31.3029 124.764 32.355 125.259 32.9888C125.754 33.6225 126.548 33.9386 127.639 33.9386C128.552 33.9386 129.267 33.5729 129.784 32.8407C130.301 32.1089 130.559 31.0997 130.559 29.8128C130.559 28.5082 130.301 27.5063 129.784 26.8093C129.267 26.1118 128.539 25.7636 127.601 25.7636ZM135.92 35.0748H134.321V20.2148H135.92V35.0748ZM145.117 35.0748L144.799 33.585H144.722C144.195 34.2413 143.67 34.6857 143.146 34.9172C142.623 35.1501 141.969 35.2661 141.186 35.2661C140.139 35.2661 139.318 34.9986 138.723 34.464C138.129 33.9294 137.832 33.1689 137.832 32.1816C137.832 30.0682 139.538 28.9602 142.949 28.8579L144.742 28.8004V28.1511C144.742 27.3297 144.563 26.7229 144.207 26.3319C143.851 25.9399 143.279 25.7442 142.496 25.7442C141.616 25.7442 140.62 26.0117 139.509 26.5463L139.017 25.3335C139.538 25.0533 140.108 24.8338 140.728 24.6747C141.348 24.5155 141.969 24.4358 142.593 24.4358C143.852 24.4358 144.785 24.7125 145.392 25.2665C145.999 25.8205 146.303 26.7086 146.303 27.9313V35.0745H145.117L145.117 35.0748ZM141.504 33.9579C142.499 33.9579 143.281 33.6872 143.85 33.1463C144.418 32.6053 144.703 31.8474 144.703 30.8728V29.9275L143.102 29.9939C141.831 30.0393 140.914 30.2343 140.351 30.5822C139.79 30.929 139.508 31.4687 139.508 32.201C139.508 32.7737 139.683 33.2102 140.034 33.5087C140.384 33.8083 140.874 33.9579 141.504 33.9579ZM147.231 24.608H148.946L151.259 30.5771C151.766 31.9398 152.081 32.9233 152.204 33.5284H152.281C152.364 33.2031 152.54 32.6482 152.806 31.8611C153.072 31.0745 153.945 28.6574 155.422 24.608H157.138L152.599 36.5268C152.149 37.7047 151.624 38.5404 151.023 39.0347C150.422 39.5277 149.685 39.7739 148.812 39.7739C148.324 39.7739 147.842 39.7199 147.366 39.6119V38.3419C147.719 38.4181 148.114 38.4566 148.551 38.4566C149.65 38.4566 150.433 37.8454 150.903 36.6228L151.49 35.1332L147.231 24.608ZM98.1996 25.5806C98.7074 25.9971 99.7677 26.8719 99.7677 28.5368C99.7677 30.1559 98.8397 30.9236 97.9118 31.645C97.6246 31.9293 97.2932 32.2368 97.2932 32.719C97.2932 33.1996 97.6243 33.4627 97.8682 33.66L98.6638 34.2717C99.6356 35.0821 100.518 35.827 100.518 37.3381C100.518 39.3959 98.508 41.475 94.7091 41.475C91.5055 41.475 89.9599 39.9648 89.9599 38.3438C89.9599 37.556 90.3557 36.4401 91.6609 35.6729C93.0296 34.841 94.8864 34.7327 95.88 34.6653C95.5698 34.2718 95.2172 33.8556 95.2172 33.1781C95.2172 32.8064 95.3281 32.5872 95.4381 32.3232C95.1941 32.3455 94.9515 32.3674 94.7303 32.3674C92.3895 32.3674 91.0642 30.6378 91.0642 28.931C91.0642 27.9237 91.5286 26.8065 92.4774 25.9974C93.737 24.9685 95.239 24.7928 96.433 24.7928H100.983L99.5686 25.581H98.1996L98.1996 25.5806ZM96.6306 35.3016C96.4541 35.2787 96.3431 35.2787 96.1233 35.2787C95.9246 35.2787 94.73 35.3235 93.8033 35.6307C93.3174 35.8045 91.9032 36.3299 91.9032 37.8851C91.9032 39.4388 93.4283 40.557 95.7922 40.557C97.9115 40.557 99.0394 39.5478 99.0394 38.1917C99.0394 37.0729 98.3102 36.4843 96.6306 35.3016ZM97.2717 31.1412C97.7791 30.6371 97.8227 29.9373 97.8227 29.5428C97.8227 27.9669 96.8733 25.5149 95.0402 25.5149C94.4652 25.5149 93.8472 25.7992 93.4937 26.2376C93.1186 26.6972 93.0071 27.2877 93.0071 27.8576C93.0071 29.3242 93.8687 31.7546 95.7694 31.7546C96.3217 31.7546 96.9169 31.4919 97.2717 31.1412ZM84.2923 34.9512C80.7861 34.9512 78.9114 32.2407 78.9114 29.7921C78.9114 26.9284 81.2708 24.4815 84.6244 24.4815C87.8649 24.4815 89.8942 26.9942 89.8942 29.6396C89.8945 32.2178 87.8883 34.9512 84.2923 34.9512ZM87.0489 33.1809C87.579 32.4808 87.7114 31.6069 87.7114 30.7537C87.7114 28.8296 86.7851 25.1582 84.05 25.1582C83.3225 25.1582 82.5949 25.4428 82.0657 25.9028C81.2054 26.6667 81.0503 27.6289 81.0503 28.5698C81.0503 30.7321 82.131 34.294 84.8004 34.294C85.6604 34.294 86.5427 33.8795 87.0489 33.1809ZM72.3383 34.9512C68.8314 34.9512 66.9564 32.2407 66.9564 29.7921C66.9564 26.9284 69.3167 24.4815 72.6694 24.4815C75.9109 24.4815 77.9398 26.9942 77.9398 29.6396C77.9402 32.2178 75.9337 34.9512 72.3383 34.9512ZM75.0955 33.1809C75.6247 32.4808 75.7574 31.6069 75.7574 30.7537C75.7574 28.8296 74.8304 25.1582 72.0953 25.1582C71.3681 25.1582 70.6399 25.4428 70.111 25.9028C69.2507 26.6667 69.0965 27.6289 69.0965 28.5698C69.0965 30.7321 70.1767 34.294 72.8464 34.294C73.7067 34.294 74.5885 33.8795 75.0955 33.1809ZM65.2717 34.6085L62.1004 35.3337C60.8138 35.5319 59.6612 35.7063 58.4422 35.7063C52.3215 35.7063 49.9941 31.2451 49.9941 27.7509C49.9941 23.4882 53.2975 19.5337 58.9525 19.5337C60.1503 19.5337 61.3023 19.709 62.3443 19.9949C64.0072 20.4565 64.7832 21.0273 65.2714 21.3574L63.4303 23.0934L62.6546 23.2684L63.2088 22.3891C62.4552 21.6645 61.0792 20.3243 58.4637 20.3243C54.9601 20.3243 52.3209 22.9625 52.3209 26.8077C52.3209 30.9379 55.337 34.8277 60.1699 34.8277C61.5905 34.8277 62.3206 34.5424 62.9863 34.2781V30.741L59.6388 30.9167L61.4119 29.9707H66.1131L65.5371 30.5199C65.3807 30.6524 65.3592 30.6969 65.315 30.8709C65.2919 31.0692 65.2711 31.707 65.2711 31.9265V34.6085H65.2717V34.6085Z" fill="#F9F9F9"/>
<path d="M105.206 33.9756C104.474 33.9096 104.321 33.7784 104.321 32.9204V20.4828C104.326 20.4355 104.328 20.3869 104.333 20.3411C104.422 19.5724 104.644 19.4405 105.332 19.0444H102.16L100.497 19.8357H102.192V19.8456L102.191 19.8376V33.4045C102.191 33.8432 102.103 33.9099 101.592 34.5684H105.518L106.338 34.0862C105.962 34.0408 105.584 34.0195 105.206 33.9756ZM114.229 34.1777C113.988 34.3089 113.746 34.4623 113.504 34.5706C112.776 34.8978 112.028 34.9855 111.366 34.9855C110.663 34.9855 109.561 34.9404 108.437 34.1338C106.875 33.0417 106.192 31.165 106.192 29.5287C106.192 26.1466 108.966 24.4881 111.234 24.4881C112.027 24.4881 112.843 24.6841 113.504 25.0997C114.604 25.8185 114.89 26.7569 115.043 27.2591L109.87 29.3331L108.174 29.4639C108.724 32.2355 110.617 33.8492 112.71 33.8492C113.833 33.8492 114.648 33.4572 115.396 33.0868L114.229 34.1777ZM112.16 27.6733C112.578 27.5211 112.798 27.3896 112.798 27.0844C112.798 26.2121 111.807 25.2076 110.617 25.2076C109.735 25.2076 108.085 25.8846 108.085 28.241C108.085 28.612 108.129 29.0046 108.152 29.3988L112.16 27.6733ZM116.355 24.6374V26.0774H116.178V24.6374H115.697V24.4881H116.835V24.6374H116.355ZM118.335 26.0774V24.6241H118.327L117.88 26.0774H117.742L117.291 24.6241H117.285V26.0774H117.124V24.4881H117.399L117.807 25.7728H117.813L118.216 24.4881H118.494V26.0774H118.335Z" fill="#F9F9F9"/>
<path d="M54.396 15.2546H53.294C53.294 15.1043 53.1895 14.679 52.9805 13.9782H51.3898C51.1741 14.6675 51.066 15.0928 51.066 15.2546H50.0298C50.0298 15.1659 50.2977 14.4378 50.8337 13.0707C51.3696 11.7035 51.6375 10.9503 51.6375 10.8118H52.9392C52.9392 10.9414 53.1818 11.6834 53.6674 13.0383C54.153 14.3931 54.396 15.1316 54.396 15.2546ZM52.8052 13.3264C52.4126 12.1526 52.2164 11.5179 52.2164 11.4223H52.1613C52.1613 11.511 51.9581 12.1456 51.552 13.3264H52.8052ZM58.8359 15.2546H57.9856C57.9856 15.1612 57.6699 14.6688 57.0387 13.7771C56.3778 12.8375 56.0012 12.1952 55.9095 11.8493H55.8544C55.9118 12.3473 55.9407 12.7978 55.9407 13.2006C55.9407 13.7625 55.9567 14.4474 55.9887 15.2549H55.1416C55.1759 14.5497 55.1932 13.7752 55.1932 12.9312C55.1932 12.1009 55.1759 11.3944 55.1416 10.8121H56.164C56.164 10.9328 56.4474 11.4141 57.0144 12.2556C57.618 13.1495 57.9648 13.7559 58.0542 14.0745H58.1058C58.0507 13.5672 58.0231 13.1123 58.0231 12.7095C58.0231 12.0933 58.0071 11.4605 57.975 10.8121H58.836C58.8036 11.3763 58.7879 12.0828 58.7879 12.9312C58.7875 13.786 58.8035 14.5605 58.8359 15.2546ZM63.8262 12.8794C63.8262 13.5255 63.6172 14.0897 63.1996 14.5719C62.7816 15.0545 62.1963 15.2952 61.4434 15.2952C61.1036 15.2952 60.6353 15.2816 60.0385 15.2542C60.0683 14.5672 60.0834 13.7924 60.0834 12.9306C60.0834 12.1028 60.0683 11.3963 60.0385 10.8115H60.6411C60.7398 10.8115 60.8866 10.808 61.0819 10.8013C61.2767 10.7946 61.4043 10.7911 61.4639 10.7911C62.2925 10.7911 62.8932 10.996 63.2665 11.4055C63.6396 11.8149 63.8262 12.306 63.8262 12.8794ZM62.8864 13.0262C62.8864 12.5894 62.7578 12.2215 62.5008 11.922C62.2437 11.6231 61.8511 11.4735 61.3232 11.4735C61.2245 11.4735 61.0892 11.4836 60.9167 11.5043C60.9395 11.9595 60.951 12.4347 60.951 12.9306C60.951 13.4744 60.9626 14.0135 60.9853 14.5481C61.1326 14.5775 61.2825 14.5924 61.4328 14.5926C61.9264 14.5926 62.2918 14.4404 62.5293 14.1367C62.7668 13.833 62.8864 13.4629 62.8864 13.0262ZM68.428 15.2546H67.4087C67.1423 14.4493 66.9382 13.9522 66.7959 13.7635C66.6536 13.5745 66.4241 13.4801 66.1074 13.4801C65.9741 13.4801 65.8468 13.4814 65.7253 13.4836C65.7253 14.0684 65.7356 14.6586 65.7564 15.2546H64.7993C64.8291 14.5675 64.8442 13.7927 64.8442 12.9309C64.8442 12.1031 64.8291 11.3966 64.7993 10.8118H65.3948C65.4638 10.8118 65.6077 10.8083 65.8269 10.8016C66.0462 10.7949 66.2488 10.7914 66.4347 10.7914C67.4882 10.7914 68.0152 11.1485 68.0152 11.8629C68.0152 12.4293 67.7145 12.8238 67.1132 13.0471V13.0983C67.3449 13.1618 67.5482 13.3413 67.7225 13.6355C67.8965 13.9299 68.1318 14.4696 68.428 15.2546ZM67.1369 12.1151C67.1369 11.6624 66.843 11.436 66.2555 11.436C66.0397 11.436 65.849 11.4519 65.684 11.4836C65.7093 11.8362 65.7218 12.2959 65.7218 12.8623C65.8481 12.867 65.9548 12.8689 66.042 12.8689C66.7718 12.8693 67.1369 12.618 67.1369 12.1151ZM73.3634 12.9512C73.3634 13.6494 73.1477 14.2285 72.716 14.6881C72.2842 15.1475 71.7506 15.3775 71.1149 15.3775C70.5089 15.3775 70.0014 15.1665 69.5931 14.7444C69.1844 14.3225 68.9802 13.786 68.9802 13.1357C68.9802 12.4375 69.196 11.8584 69.6277 11.3988C70.0591 10.9395 70.5928 10.7095 71.2287 10.7095C71.8348 10.7095 72.3419 10.9198 72.7506 11.3407C73.1593 11.7616 73.3634 12.2981 73.3634 12.9512ZM72.4134 13.05C72.4134 12.5745 72.2906 12.1888 72.0451 11.8931C71.7993 11.5974 71.4964 11.4496 71.1361 11.4496C70.8008 11.4496 70.5162 11.5986 70.2822 11.8966C70.0482 12.1946 69.9306 12.571 69.9306 13.0262C69.9306 13.4992 70.054 13.8842 70.3008 14.1812C70.5476 14.4782 70.8499 14.6266 71.2082 14.6266C71.5432 14.6266 71.8281 14.477 72.0621 14.1777C72.2961 13.8788 72.4134 13.5026 72.4134 13.05ZM75.3103 15.2546H74.3359C74.3657 14.5494 74.3808 13.7749 74.3808 12.9309C74.3808 12.1005 74.3657 11.3941 74.3359 10.8118H75.3103C75.2805 11.3852 75.2654 12.0913 75.2654 12.9309C75.2654 13.7882 75.2805 14.563 75.3103 15.2546ZM80.3009 12.8794C80.3009 13.5255 80.0919 14.0897 79.6743 14.5719C79.2563 15.0545 78.671 15.2952 77.9181 15.2952C77.5784 15.2952 77.1101 15.2816 76.5132 15.2542C76.5431 14.5672 76.5581 13.7924 76.5581 12.9306C76.5581 12.1028 76.5431 11.3963 76.5132 10.8115H77.1158C77.2146 10.8115 77.3614 10.808 77.5566 10.8013C77.7515 10.7946 77.879 10.7911 77.9387 10.7911C78.7672 10.7911 79.3679 10.996 79.7413 11.4055C80.1144 11.8149 80.3009 12.306 80.3009 12.8794ZM79.3611 13.0262C79.3611 12.5894 79.2326 12.2215 78.9755 11.922C78.7184 11.6231 78.3258 11.4735 77.7979 11.4735C77.6992 11.4735 77.5639 11.4836 77.3915 11.5043C77.4142 11.9595 77.4257 12.4347 77.4257 12.9306C77.4257 13.4744 77.4373 14.0135 77.46 14.5481C77.6073 14.5775 77.7572 14.5924 77.9075 14.5926C78.4011 14.5926 78.7665 14.4404 79.004 14.1367C79.2416 13.833 79.3611 13.4629 79.3611 13.0262ZM86.9217 15.2546H85.8197C85.8197 15.1043 85.7152 14.679 85.5059 13.9782H83.9152C83.6994 14.6675 83.5914 15.0928 83.5914 15.2546H82.5555C82.5555 15.1659 82.8234 14.4378 83.3594 13.0707C83.8953 11.7035 84.1632 10.9503 84.1632 10.8118H85.4649C85.4649 10.9414 85.7079 11.6834 86.1931 13.0383C86.6784 14.3931 86.9217 15.1316 86.9217 15.2546ZM85.3309 13.3264C84.9383 12.1526 84.7418 11.5179 84.7418 11.4223H84.6866C84.6866 11.511 84.4837 12.1456 84.0777 13.3264H85.3309ZM90.9379 11.975C90.9379 12.5189 90.734 12.9204 90.3266 13.1796C89.9192 13.4388 89.4195 13.5687 88.8272 13.5687C88.7192 13.5687 88.6426 13.5665 88.5964 13.562C88.5964 13.9899 88.6089 14.5538 88.6342 15.2546H87.6665C87.6963 14.5973 87.7114 13.8225 87.7114 12.9309C87.7114 12.112 87.6964 11.4055 87.6665 10.8118H88.2656C88.3505 10.8118 88.5133 10.8083 88.7544 10.8016C88.9955 10.7949 89.2041 10.7914 89.381 10.7914C89.8169 10.7914 90.1856 10.8893 90.4862 11.0849C90.7869 11.2806 90.9379 11.577 90.9379 11.975ZM90.0497 12.1628C90.0497 11.6761 89.7237 11.4325 89.0718 11.4325C88.9086 11.4325 88.7365 11.4496 88.5554 11.4836C88.5807 11.9137 88.5932 12.4004 88.5932 12.9442C88.6506 12.949 88.7173 12.9509 88.7929 12.9509C89.6308 12.9512 90.0497 12.6885 90.0497 12.1628ZM95.0675 11.975C95.0675 12.5189 94.8637 12.9204 94.4566 13.1796C94.0492 13.4388 93.5492 13.5687 92.9569 13.5687C92.8489 13.5687 92.7723 13.5665 92.7261 13.562C92.7261 13.9899 92.7386 14.5538 92.7639 15.2546H91.7963C91.8261 14.5973 91.8412 13.8225 91.8412 12.9309C91.8412 12.112 91.8261 11.4055 91.7963 10.8118H92.3953C92.4803 10.8118 92.6431 10.8083 92.8841 10.8016C93.1251 10.7949 93.3338 10.7914 93.5107 10.7914C93.9466 10.7914 94.3153 10.8893 94.6159 11.0849C94.9165 11.2806 95.0675 11.577 95.0675 11.975ZM94.1794 12.1628C94.1794 11.6761 93.8534 11.4325 93.2015 11.4325C93.0383 11.4325 92.8662 11.4496 92.6851 11.4836C92.7104 11.9137 92.7229 12.4004 92.7229 12.9442C92.7803 12.949 92.847 12.9509 92.9226 12.9509C93.7604 12.9512 94.1794 12.6885 94.1794 12.1628ZM101.819 12.9512C101.819 13.6494 101.604 14.2285 101.172 14.6881C100.74 15.1478 100.207 15.3775 99.5709 15.3775C98.9648 15.3775 98.4574 15.1665 98.0491 14.7444C97.6407 14.3225 97.4363 13.786 97.4363 13.1357C97.4363 12.4375 97.652 11.8584 98.0837 11.3988C98.5154 10.9391 99.0491 10.7095 99.6847 10.7095C100.291 10.7095 100.798 10.9198 101.207 11.3407C101.615 11.7616 101.819 12.2981 101.819 12.9512ZM100.869 13.05C100.869 12.5745 100.746 12.1888 100.501 11.8931C100.255 11.5974 99.952 11.4496 99.5918 11.4496C99.2565 11.4496 98.9719 11.5986 98.7379 11.8966C98.5039 12.1946 98.3866 12.571 98.3866 13.0262C98.3866 13.4992 98.51 13.8842 98.7568 14.1812C99.0036 14.4782 99.3059 14.6266 99.6639 14.6266C99.9992 14.6266 100.284 14.477 100.518 14.1777C100.752 13.8788 100.869 13.5026 100.869 13.05ZM106.486 15.2546H105.636C105.636 15.1612 105.321 14.6688 104.689 13.7771C104.028 12.8375 103.652 12.1952 103.56 11.8493H103.505C103.562 12.3473 103.591 12.7978 103.591 13.2006C103.591 13.7625 103.607 14.4474 103.639 15.2549H102.792C102.826 14.5497 102.844 13.7752 102.844 12.9312C102.844 12.1009 102.826 11.3944 102.792 10.8121H103.814C103.814 10.9328 104.098 11.4141 104.665 12.2556C105.269 13.1495 105.615 13.7559 105.705 14.0745H105.756C105.701 13.5672 105.673 13.1123 105.673 12.7095C105.673 12.0933 105.657 11.4605 105.625 10.8121H106.486C106.454 11.3763 106.438 12.0828 106.438 12.9312C106.438 13.786 106.454 14.5605 106.486 15.2546Z" fill="#F9F9FA"/>
<defs>
<linearGradient id="paint0_linear_21_1022" x1="21.6989" y1="10.2325" x2="21.6989" y2="46.2241" gradientUnits="userSpaceOnUse">
<stop stop-color="#257CB0"/>
<stop offset="0.286" stop-color="#4A93B5"/>
<stop offset="0.767" stop-color="#78BCBB"/>
<stop offset="1" stop-color="#89CFBD"/>
</linearGradient>
<linearGradient id="paint1_linear_21_1022" x1="12.5428" y1="19.1667" x2="35.7742" y2="19.1667" gradientUnits="userSpaceOnUse">
<stop stop-color="#52C1AD"/>
<stop offset="1" stop-color="#DEE89A"/>
</linearGradient>
<linearGradient id="paint2_linear_21_1022" x1="24.158" y1="28.2286" x2="24.158" y2="46.3551" gradientUnits="userSpaceOnUse">
<stop stop-color="#EC413D"/>
<stop offset="0.167" stop-color="#DA4452"/>
<stop offset="0.575" stop-color="#B0487A"/>
<stop offset="0.862" stop-color="#954A92"/>
<stop offset="1" stop-color="#8A4A9D"/>
</linearGradient>
<linearGradient id="paint3_linear_21_1022" x1="37.5382" y1="23.3951" x2="37.5382" y2="33.0617" gradientUnits="userSpaceOnUse">
<stop stop-color="#F58879"/>
<stop offset="0.119" stop-color="#F69079"/>
<stop offset="0.713" stop-color="#FCB877"/>
<stop offset="1" stop-color="#FEC874"/>
</linearGradient>
</defs>
</svg>
