<svg width="55" height="54" viewBox="0 0 55 54" fill="none" xmlns="http://www.w3.org/2000/svg">
<circle cx="27.5487" cy="27.3605" r="26.6395" fill="white"/>
<path d="M35.1281 13.0886H19.965C16.2704 13.0886 13.2754 16.0837 13.2754 19.7782V34.9414C13.2754 38.6359 16.2704 41.631 19.965 41.631H35.1281C38.8227 41.631 41.8178 38.6359 41.8178 34.9414V19.7782C41.8178 16.0837 38.8227 13.0886 35.1281 13.0886Z" fill="url(#paint0_radial_21_1058)"/>
<path d="M35.1281 13.0886H19.965C16.2704 13.0886 13.2754 16.0837 13.2754 19.7782V34.9414C13.2754 38.6359 16.2704 41.631 19.965 41.631H35.1281C38.8227 41.631 41.8178 38.6359 41.8178 34.9414V19.7782C41.8178 16.0837 38.8227 13.0886 35.1281 13.0886Z" fill="url(#paint1_radial_21_1058)"/>
<path d="M27.5449 16.2097C24.517 16.2097 24.1369 16.223 22.9477 16.2771C21.7607 16.3315 20.9505 16.5193 20.2416 16.7951C19.5082 17.0798 18.8862 17.4608 18.2665 18.0807C17.6463 18.7005 17.2653 19.3225 16.9796 20.0556C16.7031 20.7647 16.5151 21.5752 16.4617 22.7616C16.4085 23.9509 16.3945 24.3311 16.3945 27.3592C16.3945 30.3872 16.4079 30.7661 16.4619 31.9553C16.5165 33.1423 16.7044 33.9525 16.9799 34.6614C17.2649 35.3948 17.6458 36.0168 18.2657 36.6365C18.8853 37.2567 19.5073 37.6386 20.2402 37.9233C20.9496 38.199 21.7599 38.3869 22.9467 38.4413C24.136 38.4954 24.5157 38.5087 27.5436 38.5087C30.5718 38.5087 30.9507 38.4954 32.1399 38.4413C33.3268 38.3869 34.138 38.199 34.8474 37.9233C35.5805 37.6386 36.2016 37.2567 36.8211 36.6365C37.4413 36.0168 37.8222 35.3948 38.1079 34.6617C38.382 33.9525 38.5702 33.142 38.6259 31.9555C38.6793 30.7663 38.6933 30.3872 38.6933 27.3592C38.6933 24.3311 38.6793 23.9512 38.6259 22.7619C38.5702 21.5749 38.382 20.7648 38.1079 20.0559C37.8222 19.3225 37.4413 18.7005 36.8211 18.0807C36.2009 17.4606 35.5807 17.0796 34.8467 16.7952C34.136 16.5193 33.3253 16.3314 32.1383 16.2771C30.949 16.223 30.5704 16.2097 27.5414 16.2097H27.5449ZM26.5447 18.2189C26.8416 18.2185 27.1728 18.2189 27.5449 18.2189C30.5219 18.2189 30.8747 18.2296 32.0502 18.2831C33.1373 18.3328 33.7273 18.5144 34.1203 18.667C34.6407 18.8691 35.0116 19.1107 35.4016 19.501C35.7919 19.8912 36.0334 20.2628 36.2359 20.7832C36.3886 21.1756 36.5704 21.7657 36.6199 22.8527C36.6733 24.0281 36.6849 24.3811 36.6849 27.3566C36.6849 30.3322 36.6733 30.6853 36.6199 31.8605C36.5702 32.9476 36.3886 33.5376 36.2359 33.9302C36.0339 34.4505 35.7919 34.821 35.4016 35.211C35.0114 35.6012 34.6409 35.8427 34.1203 36.0449C33.7278 36.1982 33.1373 36.3794 32.0502 36.4291C30.8749 36.4825 30.5219 36.4941 27.5449 36.4941C24.5678 36.4941 24.2149 36.4825 23.0397 36.4291C21.9526 36.3789 21.3626 36.1973 20.9692 36.0447C20.449 35.8425 20.0773 35.601 19.687 35.2108C19.2968 34.8206 19.0553 34.4498 18.8527 33.9293C18.7001 33.5367 18.5183 32.9467 18.4688 31.8596C18.4154 30.6843 18.4046 30.3313 18.4046 27.3538C18.4046 24.3765 18.4154 24.0253 18.4688 22.8499C18.5185 21.7629 18.7001 21.1729 18.8527 20.7798C19.0549 20.2595 19.2968 19.8879 19.6872 19.4977C20.0774 19.1074 20.449 18.8658 20.9693 18.6634C21.3624 18.5101 21.9526 18.3289 23.0397 18.2789C24.0682 18.2324 24.4668 18.2185 26.5447 18.2162V18.2189ZM33.4964 20.0702C32.7578 20.0702 32.1585 20.6689 32.1585 21.4077C32.1585 22.1463 32.7578 22.7456 33.4964 22.7456C34.2351 22.7456 34.8344 22.1463 34.8344 21.4077C34.8344 20.669 34.2351 20.0697 33.4964 20.0697V20.0702ZM27.5449 21.6334C24.3829 21.6334 21.8193 24.1971 21.8193 27.3592C21.8193 30.5213 24.3829 33.0837 27.5449 33.0837C30.707 33.0837 33.2698 30.5213 33.2698 27.3592C33.2698 24.1972 30.7067 21.6334 27.5447 21.6334H27.5449ZM27.5449 23.6427C29.5974 23.6427 31.2614 25.3065 31.2614 27.3592C31.2614 29.4117 29.5974 31.0757 27.5449 31.0757C25.4923 31.0757 23.8285 29.4117 23.8285 27.3592C23.8285 25.3065 25.4923 23.6427 27.5449 23.6427Z" fill="white"/>
<defs>
<radialGradient id="paint0_radial_21_1058" cx="0" cy="0" r="1" gradientUnits="userSpaceOnUse" gradientTransform="translate(20.857 43.8293) rotate(-90) scale(28.2876 26.3097)">
<stop stop-color="#FFDD55"/>
<stop offset="0.1" stop-color="#FFDD55"/>
<stop offset="0.5" stop-color="#FF543E"/>
<stop offset="1" stop-color="#C837AB"/>
</radialGradient>
<radialGradient id="paint1_radial_21_1058" cx="0" cy="0" r="1" gradientUnits="userSpaceOnUse" gradientTransform="translate(8.49443 15.1447) rotate(78.681) scale(12.6447 52.1219)">
<stop stop-color="#3771C8"/>
<stop offset="0.128" stop-color="#3771C8"/>
<stop offset="1" stop-color="#6600FF" stop-opacity="0"/>
</radialGradient>
</defs>
</svg>
