<svg width="54" height="54" viewBox="0 0 54 54" fill="none" xmlns="http://www.w3.org/2000/svg">
<circle cx="27.1483" cy="27.3605" r="26.6395" fill="white"/>
<path d="M43.3226 17.1746C42.132 17.7231 40.8486 18.0835 39.5188 18.2558C40.8795 17.4253 41.931 16.109 42.4258 14.5263C41.1424 15.3098 39.7198 15.8583 38.2199 16.1717C36.9984 14.824 35.282 14.0405 33.3337 14.0405C29.7 14.0405 26.7311 17.0492 26.7311 20.7631C26.7311 21.2959 26.793 21.813 26.9012 22.2988C21.3965 22.0167 16.4948 19.3371 13.2322 15.2785C12.66 16.2657 12.3353 17.4253 12.3353 18.6476C12.3353 20.9825 13.495 23.051 15.2887 24.2262C14.1909 24.2262 13.1703 23.9128 12.2735 23.4427V23.4897C12.2735 26.7492 14.562 29.4758 17.5927 30.0869C16.6196 30.3568 15.5981 30.3943 14.6083 30.1966C15.0283 31.5325 15.8508 32.7014 16.9603 33.539C18.0697 34.3766 19.4102 34.8408 20.7934 34.8664C18.4487 36.7475 15.5423 37.7643 12.5518 37.7497C12.0261 37.7497 11.5003 37.7184 10.9746 37.6557C13.9125 39.5675 17.4071 40.6801 21.1491 40.6801C33.3337 40.6801 40.0291 30.4317 40.0291 21.5466C40.0291 21.2489 40.0291 20.9668 40.0136 20.6691C41.3125 19.7289 42.4258 18.5379 43.3226 17.1746Z" fill="#1F4566"/>
</svg>
